<svg width="777px" height="480px" viewBox="0 0 777 480" version="1.1" xmlns="http://www.w3.org/2000/svg" xmlns:xlink="http://www.w3.org/1999/xlink">
    <title>Card</title>
    <defs>
        <rect id="path-1" x="0" y="0" width="216" height="208" rx="25"></rect>
        <filter x="-3.2%" y="-2.4%" width="106.5%" height="106.7%" filterUnits="objectBoundingBox" id="filter-2">
            <feOffset dx="0" dy="2" in="SourceAlpha" result="shadowOffsetOuter1"></feOffset>
            <feGaussianBlur stdDeviation="2" in="shadowOffsetOuter1" result="shadowBlurOuter1"></feGaussianBlur>
            <feColorMatrix values="0 0 0 0 0   0 0 0 0 0   0 0 0 0 0  0 0 0 0.5 0" type="matrix" in="shadowBlurOuter1"></feColorMatrix>
        </filter>
        <radialGradient cx="8.85643177%" cy="37.4081926%" fx="8.85643177%" fy="37.4081926%" r="83.3190206%" gradientTransform="translate(0.088564,0.374082),scale(0.963902,1.000000),rotate(29.829014),translate(-0.088564,-0.374082)" id="radialGradient-3">
            <stop stop-color="#337AF9" offset="0%"></stop>
            <stop stop-color="#CBDDFD" offset="100%"></stop>
        </radialGradient>
        <filter id="filter-4">
            <feColorMatrix in="SourceGraphic" type="matrix" values="0 0 0 0 0.670588 0 0 0 0 0.784314 0 0 0 0 0.992157 0 0 0 1.000000 0"></feColorMatrix>
        </filter>
        <filter id="filter-5">
            <feColorMatrix in="SourceGraphic" type="matrix" values="0 0 0 0 0.752941 0 0 0 0 0.835294 0 0 0 0 0.992157 0 0 0 1.000000 0"></feColorMatrix>
        </filter>
    </defs>
    <g id="Image" stroke="none" stroke-width="1" fill="none" fill-rule="evenodd">
        <g id="Desktop-HD" transform="translate(-297.000000, -254.000000)">
            <g id="Card" transform="translate(297.000000, 256.000000)">
                <rect id="Rectangle" fill="#081131" x="105" y="38" width="624" height="440" rx="40"></rect>
                <g id="Analytics" transform="translate(309.000000, 0.000000)">
                    <g id="Rectangle">
                        <use fill="black" fill-opacity="1" filter="url(#filter-2)" xlink:href="#path-1"></use>
                        <use fill="#2B59F7" fill-rule="evenodd" xlink:href="#path-1"></use>
                    </g>
                    <ellipse id="Oval" fill="url(#radialGradient-3)" cx="107" cy="102.985366" rx="90" ry="86.7512195"></ellipse>
                    <ellipse id="Oval" fill="#2B59F7" cx="108" cy="104.507317" rx="64" ry="62.9073171"></ellipse>
                    <text id="96%" font-family="ArialRoundedMTBold, Arial Rounded MT Bold" font-size="35" font-weight="normal" fill="#FFFFFF">
                        <tspan x="71" y="117.507317">96%</tspan>
                    </text>
                </g>
                <g id="Status" transform="translate(0.000000, 320.000000)">
                    <rect id="Rectangle" fill="#162144" x="0" y="0" width="551" height="115.211463" rx="8"></rect>
                    <g id="inside" transform="translate(20.000000, 16.998413)">
                        <g id="Group-4">
                            <ellipse id="Oval" fill="#34B27C" cx="43" cy="40.6073188" rx="43" ry="40.6073188"></ellipse>
                            <g id="noun_percentage_1915823" transform="translate(24.000000, 21.078032)" fill="#FFFFFF" fill-rule="nonzero">
                                <ellipse id="Oval" cx="11.5" cy="11.7017544" rx="1.5" ry="1.52631579"></ellipse>
                                <ellipse id="Oval" cx="26.5" cy="26.9649123" rx="1.5" ry="1.52631579"></ellipse>
                                <path d="M34.8333333,0 L3.16666667,0 C1.41866667,0 0,1.44355556 0,3.22222222 L0,35.4444444 C0,37.2231111 1.41866667,38.6666667 3.16666667,38.6666667 L34.8333333,38.6666667 C36.5813333,38.6666667 38,37.2231111 38,35.4444444 L38,3.22222222 C38,1.44355556 36.5813333,0 34.8333333,0 Z M11.0833333,6.44444444 C13.7021667,6.44444444 15.8333333,8.613 15.8333333,11.2777778 C15.8333333,13.9425556 13.7021667,16.1111111 11.0833333,16.1111111 C8.4645,16.1111111 6.33333333,13.9425556 6.33333333,11.2777778 C6.33333333,8.613 8.4645,6.44444444 11.0833333,6.44444444 Z M26.9166667,32.2222222 C24.2978333,32.2222222 22.1666667,30.0536667 22.1666667,27.3888889 C22.1666667,24.7241111 24.2978333,22.5555556 26.9166667,22.5555556 C29.5355,22.5555556 31.6666667,24.7241111 31.6666667,27.3888889 C31.6666667,30.0536667 29.5355,32.2222222 26.9166667,32.2222222 Z M31.2043333,9.19622222 L9.03766667,31.7517778 C8.72733333,32.0643333 8.322,32.2222222 7.91666667,32.2222222 C7.51133333,32.2222222 7.106,32.0643333 6.79566667,31.7517778 C6.17816667,31.1234444 6.17816667,30.102 6.79566667,29.4736667 L28.9623333,6.91811111 C29.5798333,6.28977778 30.5836667,6.28977778 31.2011667,6.91811111 C31.8186667,7.54644444 31.8218333,8.56466667 31.2043333,9.19622222 Z" id="Shape"></path>
                            </g>
                        </g>
                        <g id="placeholder" transform="translate(105.000000, 11.332275)" fill="#222C51">
                            <rect id="Rectangle" x="0" y="0" width="228" height="20.7758375" rx="9"></rect>
                            <rect id="Rectangle-Copy" x="0" y="29.2750438" width="112" height="20.7758375" rx="9"></rect>
                        </g>
                        <g id="button" transform="translate(415.000000, 11.332275)">
                            <rect id="Rectangle" fill="#2B59F7" x="0" y="0" width="95" height="50.0508813" rx="13"></rect>
                            <rect id="Rectangle" fill="#689EFF" x="18" y="17.9427688" width="60" height="13.2209875" rx="4"></rect>
                        </g>
                    </g>
                </g>
                <g id="Group-3" transform="translate(682.000000, 125.000000)">
                    <ellipse id="Oval" fill="#222C51" cx="47.5" cy="48" rx="47.5" ry="48"></ellipse>
                    <g filter="url(#filter-4)" id="noun_chart_2391125">
                        <g transform="translate(21.000000, 20.210526)">
                            <path d="M25.5684233,29.2382329 L25.5684233,4.04935178 C25.5684233,4.04935178 25.5155093,4.04210526 25.4662445,4.04210526 C11.3892884,4.04210526 0,15.3720292 0,29.3487422 C0,43.3290785 11.4239562,54.5684211 25.5009123,54.5684211 C39.555973,54.5684211 50.9635076,43.73126 51,29.2382329 L25.5684233,29.2382329 Z" id="Path" fill="#FFFFFF" fill-rule="nonzero"></path>
                            <path d="M54,25.2345784 C54,25.2345784 53.9569522,25.2799512 53.9569522,25.2563573 C53.9569522,11.3032907 43.349261,0.0798562606 29,0 L29,25.2327634 L54,25.2327634 L54,25.2345784 Z" id="Path" fill="#FFFFFF" fill-rule="nonzero"></path>
                        </g>
                    </g>
                </g>
                <g id="Group-2" transform="translate(57.000000, 125.000000)">
                    <ellipse id="Oval" fill="#222C51" cx="47.5" cy="48" rx="47.5" ry="48"></ellipse>
                    <g filter="url(#filter-5)" id="noun_stats_2226104">
                        <g transform="translate(28.000000, 28.294737)">
                            <path d="M1.52220908,8.30505543e-05 C1.11160299,0.00444498303 0.719744054,0.174560773 0.433933956,0.472616912 C0.148123858,0.770673051 -0.00789367327,1.17190847 0.000307733576,1.5869325 L0.000307733576,36.1395606 C0.000307733576,37.953213 1.53570436,39.4103927 3.30004257,39.4103927 L38.4402791,39.4103927 C38.994496,39.4177223 39.5098043,39.1230996 39.7890673,38.6390969 C40.0683303,38.1550941 40.0683303,37.5566139 39.7890673,37.0726111 C39.5098043,36.5886084 38.994496,36.2939857 38.4402791,36.301454 L3.30004257,36.301454 C3.11735936,36.301454 3.07581147,36.2122104 3.07581147,36.1395606 L3.07581147,1.5869325 C3.08446192,1.16629225 2.92408527,0.760070592 2.63131106,0.461047289 C2.33853685,0.162023985 1.93837061,-0.00426169025 1.52220908,8.30505543e-05 L1.52220908,8.30505543e-05 Z M17.8430393,7.2863386 C17.2856574,7.31810955 16.7890901,7.65277028 16.5457016,8.16067725 L12.3493739,17.1307612 L8.20109662,17.1307612 C7.64653291,17.1227465 7.13066835,17.4172441 6.85107259,17.9014652 C6.57147683,18.3856863 6.57147683,18.9845946 6.85107259,19.4688157 C7.13066835,19.9530368 7.64653291,20.2475344 8.20109662,20.2395197 L13.3263818,20.2395197 C13.9223116,20.240711 14.4652681,19.8937184 14.7198187,19.349002 L17.9231218,12.5161863 L24.7461579,27.6228353 C25.0010998,28.1768714 25.5534656,28.5285349 26.1578712,28.5217027 C26.7622767,28.5146692 27.3066072,28.1504261 27.5490481,27.5906848 L30.7363349,20.2397271 L38.4402791,20.2397271 C38.9948429,20.2477418 39.5107074,19.9532442 39.7903032,19.4690231 C40.0698989,18.984802 40.0698989,18.3858937 39.7903032,17.9016726 C39.5107074,17.4174515 38.9948429,17.1229539 38.4402791,17.1309686 L29.7272944,17.1309686 C29.1181195,17.1292205 28.5653538,17.491172 28.3178407,18.0538805 L26.1075618,23.1704028 L19.332575,8.19326854 C19.0689686,7.60902927 18.4771451,7.24876955 17.8430393,7.28654603 L17.8430393,7.2863386 Z" id="Shape" fill="#FFFFFF" fill-rule="nonzero"></path>
                        </g>
                    </g>
                </g>
            </g>
        </g>
    </g>
</svg>